<svg class="Shape_l" viewBox="0 0 48 47.105">
				<path id="Shape_l" d="M 37.71480178833008 47.10480499267578 L 4.285200119018555 47.10480499267578 C 1.922333478927612 47.10480499267578 0 45.18193817138672 0 42.81840133666992 L 0 3.243600130081177 C 0 2.168186902999878 0.8782666921615601 1.525546669960022 1.727346777915955 1.525546669960022 C 2.174906730651855 1.525546669960022 2.600880146026611 1.704840183258057 2.92680025100708 2.030400037765503 L 6.856800079345703 5.961599826812744 L 10.81439971923828 0.685200035572052 C 11.14084053039551 0.2497466802597046 11.6409330368042 1.13686837721616e-13 12.18646621704102 1.13686837721616e-13 C 12.64374732971191 1.13686837721616e-13 13.07401275634766 0.1781333386898041 13.39800071716309 0.5015999674797058 L 18.8568000793457 5.961599826812744 L 24.31680107116699 0.5015999674797058 C 24.64078903198242 0.1781333386898041 25.07090759277344 1.13686837721616e-13 25.52792167663574 1.13686837721616e-13 C 26.07309341430664 1.13686837721616e-13 26.57333374023438 0.2497466802597046 26.9004020690918 0.685200035572052 L 30.8568000793457 5.961599826812744 L 34.78800201416016 2.030400037765503 C 35.11392211914063 1.704840183258057 35.53989410400391 1.525546669960022 35.98745346069336 1.525546669960022 C 36.83653259277344 1.525546669960022 37.71480178833008 2.168186902999878 37.71480178833008 3.243600130081177 L 37.71480178833008 29.96159934997559 L 46.28520202636719 29.96159934997559 C 47.23075103759766 29.96159934997559 48 30.73085403442383 48 31.67640113830566 L 48 36.81840133666992 C 48 42.49034881591797 43.38607788085938 47.10480499267578 37.71480178833008 47.10480499267578 Z M 37.71480178833008 33.3900032043457 L 37.71480178833008 43.6764030456543 C 39.54456329345703 43.67517852783203 41.26550674438477 42.96118927001953 42.56172180175781 41.66462707519531 C 43.85781478881836 40.36820220947266 44.57160186767578 38.64710998535156 44.57160186767578 36.81840133666992 L 44.57160186767578 33.3900032043457 L 37.71480178833008 33.3900032043457 Z M 13.71421337127686 19.67597389221191 C 13.29524040222168 19.67597389221191 12.89144039154053 19.8291187286377 12.5772008895874 20.10719871520996 C 12.23509407043457 20.41045379638672 12.03143978118896 20.82940101623535 12.00374603271484 21.28684043884277 C 11.97606658935547 21.7442798614502 12.12773418426514 22.18449211120605 12.43080043792725 22.52639961242676 L 15.6515998840332 26.16360092163086 C 15.96346664428711 26.51607894897461 16.4122142791748 26.72646713256836 16.8828010559082 26.74080085754395 C 16.89890670776367 26.74125289916992 16.91501426696777 26.74147987365723 16.93107986450195 26.74147987365723 C 17.39049339294434 26.74147987365723 17.82253456115723 26.56310653686523 18.1476001739502 26.23920059204102 L 25.41959953308105 18.96599960327148 C 25.74345397949219 18.64214706420898 25.92180252075195 18.21154594421387 25.92180252075195 17.7535457611084 C 25.92180252075195 17.29553413391113 25.74345397949219 16.86526679992676 25.41959953308105 16.54199981689453 C 25.09633445739746 16.2181453704834 24.66606712341309 16.0398006439209 24.20805358886719 16.0398006439209 C 23.75005340576172 16.0398006439209 23.31945419311523 16.2181453704834 22.99560165405273 16.54199981689453 L 17.01119995117188 22.52639961242676 L 14.99760055541992 20.25359916687012 C 14.67276000976563 19.88652038574219 14.20497417449951 19.67598724365234 13.71421337127686 19.67597389221191 Z">
				</path>
			</svg>