<svg class="Shape_lr" viewBox="0 0 46.37 50.234">
				<path id="Shape_lr" d="M 36.70920181274414 50.23440170288086 L 1.932000041007996 50.23440170288086 C 0.866693377494812 50.23440170288086 0 49.36770629882813 0 48.30239868164063 L 0 9.660000801086426 C 0 8.594694137573242 0.866693377494812 7.728000164031982 1.932000041007996 7.728000164031982 L 27.90719985961914 7.728000164031982 L 36.70920181274414 7.728000164031982 C 37.77450942993164 7.728000164031982 38.64120101928711 8.594694137573242 38.64120101928711 9.660000801086426 L 38.64120101928711 15.90240001678467 L 38.64120101928711 48.30239868164063 C 38.64120101928711 49.36770629882813 37.77450942993164 50.23440170288086 36.70920181274414 50.23440170288086 Z M 9.660000801086426 38.64120101928711 C 8.594693183898926 38.64120101928711 7.728000640869141 39.50789642333984 7.728000640869141 40.57320022583008 C 7.728000640869141 41.63850784301758 8.594693183898926 42.50520324707031 9.660000801086426 42.50520324707031 L 28.98119926452637 42.50520324707031 C 30.04650688171387 42.50520324707031 30.91319847106934 41.63850784301758 30.91319847106934 40.57320022583008 C 30.91319847106934 39.50789642333984 30.04650688171387 38.64120101928711 28.98119926452637 38.64120101928711 L 9.660000801086426 38.64120101928711 Z M 13.07813358306885 24.42174911499023 C 12.50252056121826 24.42174911499023 11.96084022521973 24.67522811889648 11.59200096130371 25.11720085144043 C 10.9101734161377 25.93564224243164 11.02106666564941 27.15601348876953 11.83920097351074 27.83760070800781 L 17.31119918823242 32.39760208129883 C 17.65730667114258 32.68602752685547 18.09634590148926 32.84486770629883 18.54745292663574 32.84486770629883 C 18.61812019348145 32.84486770629883 18.68949317932129 32.84093475341797 18.75959968566895 32.83320236206055 C 19.27810668945313 32.77705383300781 19.75834655761719 32.50718688964844 20.07719993591309 32.09280395507813 L 29.33040046691895 20.09880065917969 C 29.64558601379395 19.6901741027832 29.7828540802002 19.18329429626465 29.71694564819336 18.67154693603516 C 29.65102577209473 18.15970802307129 29.38973426818848 17.70429420471191 28.98119926452637 17.38920211791992 C 28.6400260925293 17.12556076049805 28.23242568969727 16.98621368408203 27.80245399475098 16.98621368408203 C 27.19827842712402 16.98621368408203 26.64030647277832 17.26037406921387 26.2716007232666 17.73840141296387 L 19.46879959106445 26.55599975585938 C 19.10053253173828 27.03401565551758 18.54249382019043 27.30818748474121 17.93777275085449 27.3082275390625 C 17.48776054382324 27.30826568603516 17.04917335510254 27.14937400817871 16.70279884338379 26.86079978942871 L 14.31360054016113 24.8700008392334 C 13.96721363067627 24.5809326171875 13.52845287322998 24.42174911499023 13.07813358306885 24.42174911499023 Z M 44.43720245361328 44.43720245361328 L 42.50520324707031 44.43720245361328 C 41.43989562988281 44.43720245361328 40.57320404052734 43.57050704956055 40.57320404052734 42.50520324707031 L 40.57320404052734 7.728000164031982 C 40.57320404052734 6.662693977355957 39.70650863647461 5.796000480651855 38.64120101928711 5.796000480651855 L 9.660000801086426 5.796000480651855 C 8.594693183898926 5.796000480651855 7.728000640869141 4.929306983947754 7.728000640869141 3.864000082015991 L 7.728000640869141 1.931999921798706 C 7.728000640869141 0.866693377494812 8.594693183898926 0 9.660000801086426 0 L 35.63640213012695 0 L 44.43720245361328 0 C 45.503173828125 0 46.37040328979492 0.866693377494812 46.37040328979492 1.931999921798706 L 46.37040328979492 8.545200347900391 L 46.37040328979492 42.50520324707031 C 46.37040328979492 43.57050704956055 45.503173828125 44.43720245361328 44.43720245361328 44.43720245361328 Z">
				</path>
			</svg>