<svg class="Shape_lx" viewBox="0 0 46.667 45.855">
				<path id="Shape_lx" d="M 23.33340072631836 45.85469436645508 C 22.90098571777344 45.85469436645508 22.49357414245605 45.66476058959961 22.21559906005859 45.33359909057617 L 18.66720008850098 41.09880065917969 L 5.833199977874756 41.09880065917969 C 2.616760015487671 41.09880065917969 -5.684341886080801e-14 38.48204040527344 -5.684341886080801e-14 35.26560211181641 L -5.684341886080801e-14 5.833199977874756 C -5.684341886080801e-14 2.61676025390625 2.616760015487671 0 5.833199977874756 0 L 40.83360290527344 0 C 44.05004119873047 0 46.66680145263672 2.61676025390625 46.66680145263672 5.833199977874756 L 46.66680145263672 35.26560211181641 C 46.66680145263672 38.48204040527344 44.05004119873047 41.09880065917969 40.83360290527344 41.09880065917969 L 27.99959945678711 41.09880065917969 L 24.45120048522949 45.33359909057617 C 24.17322540283203 45.66476058959961 23.76581382751465 45.85469436645508 23.33340072631836 45.85469436645508 Z M 11.66605377197266 21.87494659423828 C 11.30712127685547 21.87493324279785 10.96205425262451 22.00699996948242 10.69440078735352 22.24679946899414 C 10.40414714813232 22.5068531036377 10.23240089416504 22.86418533325195 10.21080112457275 23.25300025939941 C 10.18918704986572 23.64190673828125 10.32045459747314 24.0158805847168 10.58040046691895 24.30600166320801 C 12.47588062286377 26.42389297485352 14.21841430664063 27.8758659362793 16.06425285339355 28.87545394897461 C 18.23843955993652 30.05285263061523 20.61600112915039 30.62520027160645 23.33279991149902 30.62520027160645 C 26.05013275146484 30.62520027160645 28.42803955078125 30.05285263061523 30.6023998260498 28.87545394897461 C 32.44829559326172 27.87590789794922 34.19086837768555 26.42393493652344 36.08640289306641 24.30600166320801 C 36.34634780883789 24.0158805847168 36.47761535644531 23.64190673828125 36.45600128173828 23.25300025939941 C 36.43440246582031 22.86418533325195 36.26265335083008 22.5068531036377 35.9724006652832 22.24679946899414 C 35.70477294921875 22.00701332092285 35.35970687866211 21.87494659423828 35.00074768066406 21.87494659423828 C 34.58625411987305 21.87494659423828 34.18985366821289 22.05202674865723 33.91320037841797 22.36080169677734 C 31.03997421264648 25.57038879394531 28.14114761352539 27.70800018310547 23.33279991149902 27.70800018310547 C 18.52388000488281 27.70800018310547 15.62569427490234 25.57038879394531 12.75360107421875 22.36080169677734 C 12.47694778442383 22.05204010009766 12.08054733276367 21.87496185302734 11.66605377197266 21.87494659423828 Z M 29.89559936523438 10.20840072631836 C 28.68934631347656 10.20840072631836 27.70800018310547 11.18974685668945 27.70800018310547 12.39599990844727 C 27.70800018310547 13.60225296020508 28.68934631347656 14.5836009979248 29.89559936523438 14.5836009979248 C 31.10185241699219 14.5836009979248 32.08319854736328 13.60225296020508 32.08319854736328 12.39599990844727 C 32.08319854736328 11.18974685668945 31.10185241699219 10.20840072631836 29.89559936523438 10.20840072631836 Z M 16.77120018005371 10.20840072631836 C 15.56494808197021 10.20840072631836 14.58360004425049 11.18974685668945 14.58360004425049 12.39599990844727 C 14.58360004425049 13.60225296020508 15.56494808197021 14.5836009979248 16.77120018005371 14.5836009979248 C 17.97745323181152 14.5836009979248 18.95880126953125 13.60225296020508 18.95880126953125 12.39599990844727 C 18.95880126953125 11.18974685668945 17.97745323181152 10.20840072631836 16.77120018005371 10.20840072631836 Z">
				</path>
			</svg>